<svg xmlns="http://www.w3.org/2000/svg" xmlns:xlink="http://www.w3.org/1999/xlink" width="40" height="40" viewBox="0 0 40 40">
  <defs>
    <clipPath id="clip-path">
      <rect id="Retângulo_23" data-name="Retângulo 23" width="40" height="40" transform="translate(137 633)" fill="#616161" stroke="#707070" stroke-width="1"/>
    </clipPath>
  </defs>
  <g id="icone-telefone" transform="translate(-137 -633)" clip-path="url(#clip-path)">
    <g id="phone-contact-svgrepo-com" transform="translate(137 633)">
      <path id="Caminho_11" data-name="Caminho 11" d="M34.518,20.209h-2.04A12.083,12.083,0,0,0,20.409,8.138V6.1A14.121,14.121,0,0,1,34.518,20.209ZM20.408,9.62v2.038a8.555,8.555,0,0,1,8.548,8.551h2.04A10.6,10.6,0,0,0,20.408,9.62ZM20,0a20,20,0,1,0,0,40,1.234,1.234,0,0,0,0-2.469A17.532,17.532,0,1,1,37.531,20c0,4.04-2.15,8.043-5.227,9.74a7.558,7.558,0,0,1-3.623.932A5.8,5.8,0,0,0,30.629,28.8a2.63,2.63,0,0,0,.291-.44,19.891,19.891,0,0,0,.68-3.083c.3-1.3-5.7-3.849-6.225-2.221a15.578,15.578,0,0,1-.856,3.01c-.337.448-1.167.235-1.686-.206-1.368-1.166-2.895-2.879-4.234-4.233h0c-.034-.036-.076-.075-.113-.113s-.076-.076-.114-.113v0c-1.354-1.342-3.069-2.865-4.233-4.236-.441-.519-.654-1.349-.206-1.686a15.578,15.578,0,0,1,3.01-.856c1.624-.519-.918-6.524-2.224-6.225a19.777,19.777,0,0,0-3.081.677,2.9,2.9,0,0,0-.44.294c-3.427,2.172-3.869,7.447-.524,11.378,1.275,1.5,2.6,2.958,3.974,4.379l-.007,0c.038.038.077.073.116.11s.072.076.108.116l.007-.007a37.641,37.641,0,0,0,5.84,5.21c5.759,3.846,10.178,2.772,12.781,1.345,4.494-2.475,6.5-7.761,6.5-11.9A20.023,20.023,0,0,0,20,0Z"/>
    </g>
  </g>
</svg>
